<?xml version="1.0" encoding="UTF-8" standalone="no"?>
<!-- Generator: Adobe Illustrator 21.0.0, SVG Export Plug-In . SVG Version: 6.00 Build 0)  -->

<svg
   xmlns:dc="http://purl.org/dc/elements/1.1/"
   xmlns:cc="http://creativecommons.org/ns#"
   xmlns:rdf="http://www.w3.org/1999/02/22-rdf-syntax-ns#"
   xmlns:svg="http://www.w3.org/2000/svg"
   xmlns="http://www.w3.org/2000/svg"
   xmlns:sodipodi="http://sodipodi.sourceforge.net/DTD/sodipodi-0.dtd"
   xmlns:inkscape="http://www.inkscape.org/namespaces/inkscape"
   version="1.1"
   id="Capa_1"
   x="0px"
   y="0px"
   viewBox="0 0 512 516.27625"
   xml:space="preserve"
   width="512"
   height="516.27625"
   sodipodi:docname="location.svg"
   inkscape:version="0.92.3 (2405546, 2018-03-11)"><metadata
   id="metadata29"><rdf:RDF><cc:Work
       rdf:about=""><dc:format>image/svg+xml</dc:format><dc:type
         rdf:resource="http://purl.org/dc/dcmitype/StillImage" /><dc:title></dc:title></cc:Work></rdf:RDF></metadata><defs
   id="defs27">
	
	
</defs><sodipodi:namedview
   pagecolor="#ffffff"
   bordercolor="#666666"
   borderopacity="1"
   objecttolerance="10"
   gridtolerance="10"
   guidetolerance="10"
   inkscape:pageopacity="0"
   inkscape:pageshadow="2"
   inkscape:window-width="1920"
   inkscape:window-height="1017"
   id="namedview25"
   showgrid="false"
   inkscape:zoom="0.4609375"
   inkscape:cx="256"
   inkscape:cy="255.99995"
   inkscape:window-x="1432"
   inkscape:window-y="-8"
   inkscape:window-maximized="1"
   inkscape:current-layer="Capa_1" />
















<g
   id="g4642"
   transform="translate(0,4.2762203)"><g
     id="g14">
		<g
   id="g6">
			<path
   style="fill:#c9dff7"
   d="M 256,512 C 190.028,512 127.794,503.2 80.762,487.221 14.012,464.543 0,435.495 0,415.121 c 0,-26.579 23.749,-45.205 43.671,-56.149 7.263,-3.989 16.38,-1.336 20.369,5.924 3.989,7.261 1.337,16.381 -5.924,20.369 C 40.248,395.081 30,405.963 30,415.121 30,426.322 45.87,443.682 90.413,458.815 134.418,473.767 193.225,482 256,482 318.775,482 377.582,473.767 421.587,458.815 466.13,443.683 482,426.322 482,415.121 c 0,-9.158 -10.248,-20.04 -28.116,-29.857 -7.261,-3.988 -9.913,-13.108 -5.924,-20.369 3.987,-7.26 13.106,-9.913 20.369,-5.924 19.922,10.945 43.671,29.571 43.671,56.15 0,20.374 -14.012,49.422 -80.762,72.1 C 384.206,503.2 321.972,512 256,512 Z"
   id="path2"
   inkscape:connector-curvature="0" />
			<path
   style="fill:#aecef2"
   d="m 468.329,358.972 c -7.263,-3.989 -16.382,-1.336 -20.369,5.924 -3.989,7.261 -1.337,16.381 5.924,20.369 17.868,9.816 28.116,20.698 28.116,29.856 0,11.201 -15.87,28.561 -60.413,43.694 C 377.582,473.767 318.775,482 256,482 c -0.001,0 -0.003,0 -0.004,0 v 30 c 0.001,0 0.003,0 0.004,0 65.972,0 128.206,-8.8 175.238,-24.779 66.75,-22.678 80.762,-51.726 80.762,-72.1 0,-26.579 -23.749,-45.205 -43.671,-56.149 z"
   id="path4"
   inkscape:connector-curvature="0" />
		</g>
		<g
   id="g12">
			<path
   style="fill:#c9dff7"
   d="m 256,450.47 c -42.579,0 -82.798,-4.737 -113.248,-13.34 -37.253,-10.523 -56.142,-25.757 -56.142,-45.275 0,-19.519 18.889,-34.751 56.142,-45.274 30.45,-8.603 70.669,-13.34 113.248,-13.34 42.579,0 82.798,4.737 113.248,13.34 37.253,10.523 56.142,25.756 56.142,45.274 0,19.518 -18.889,34.752 -56.142,45.275 -30.45,8.602 -70.669,13.34 -113.248,13.34 z M 116.864,391.854 c 2.059,3.023 12.074,10.884 39.49,17.866 27.213,6.932 62.602,10.749 99.645,10.749 37.043,0 72.433,-3.817 99.646,-10.749 27.416,-6.982 37.431,-14.844 39.49,-17.866 -2.06,-3.022 -12.075,-10.883 -39.491,-17.866 -27.213,-6.931 -62.601,-10.748 -99.645,-10.748 -37.044,0 -72.432,3.817 -99.645,10.748 -27.415,6.984 -37.43,14.844 -39.49,17.866 z m 278.614,0.621 h 0.011 z"
   id="path8"
   inkscape:connector-curvature="0" />
			<path
   style="fill:#aecef2"
   d="M 369.248,346.58 C 338.798,337.977 298.579,333.24 256,333.24 c -0.001,0 -0.003,0 -0.004,0 v 30 c 0.001,0 0.003,0 0.004,0 37.044,0 72.432,3.817 99.645,10.748 27.416,6.983 37.432,14.844 39.491,17.866 -2.06,3.023 -12.074,10.884 -39.49,17.866 -27.213,6.932 -62.602,10.749 -99.646,10.749 -0.001,0 -0.003,0 -0.004,0 v 30 c 0.001,0 0.003,0 0.004,0 42.579,0 82.798,-4.737 113.248,-13.34 37.253,-10.523 56.142,-25.757 56.142,-45.275 0,-19.518 -18.889,-34.751 -56.142,-45.274 z"
   id="path10"
   inkscape:connector-curvature="0" />
		</g>
	</g><g
     transform="matrix(0.78813559,0,0,0.78813559,54.236895,-4.2762203)"
     id="g4603"><path
       inkscape:connector-curvature="0"
       style="fill:#ff1a4b"
       d="m 433.531,177.531 c 0,40.043 -28.086,106.04 -83.477,196.141 -40.503,65.887 -81.586,121.479 -81.996,122.039 L 256,512 243.943,495.711 C 243.533,495.151 202.45,439.559 161.947,373.672 106.556,283.571 78.47,217.574 78.47,177.531 78.469,79.645 158.105,0 256,0 353.895,0 433.531,79.645 433.531,177.531 Z"
       id="path4539" /><path
       inkscape:connector-curvature="0"
       style="fill:#ffdba9"
       d="m 357.517,174.779 c 0,55.982 -45.536,101.527 -101.518,101.527 -55.982,0 -101.517,-45.546 -101.517,-101.527 0,-55.972 45.536,-101.518 101.517,-101.518 55.981,0 101.518,45.546 101.518,101.518 z"
       id="path4541" /><path
       inkscape:connector-curvature="0"
       style="fill:#d5243e"
       d="m 433.531,177.531 c 0,40.043 -28.086,106.04 -83.477,196.141 -40.503,65.887 -81.586,121.479 -81.996,122.039 L 256,512 V 0 c 97.895,0 177.531,79.645 177.531,177.531 z"
       id="path4543" /><path
       inkscape:connector-curvature="0"
       style="fill:#ffc473"
       d="m 357.517,174.779 c 0,55.982 -45.536,101.527 -101.518,101.527 V 73.261 c 55.983,0 101.518,45.546 101.518,101.518 z"
       id="path4545" /><g
       id="g4547">
</g><g
       id="g4549">
</g><g
       id="g4551">
</g><g
       id="g4553">
</g><g
       id="g4555">
</g><g
       id="g4557">
</g><g
       id="g4559">
</g><g
       id="g4561">
</g><g
       id="g4563">
</g><g
       id="g4565">
</g><g
       id="g4567">
</g><g
       id="g4569">
</g><g
       id="g4571">
</g><g
       id="g4573">
</g><g
       id="g4575">
</g></g></g></svg>