<?xml version="1.0" encoding="UTF-8" standalone="no"?>
<!-- Created with Inkscape (http://www.inkscape.org/) -->

<svg
   xmlns:dc="http://purl.org/dc/elements/1.1/"
   xmlns:cc="http://creativecommons.org/ns#"
   xmlns:rdf="http://www.w3.org/1999/02/22-rdf-syntax-ns#"
   xmlns:svg="http://www.w3.org/2000/svg"
   xmlns="http://www.w3.org/2000/svg"
   xmlns:sodipodi="http://sodipodi.sourceforge.net/DTD/sodipodi-0.dtd"
   xmlns:inkscape="http://www.inkscape.org/namespaces/inkscape"
   width="45mm"
   height="123mm"
   viewBox="0 0 45 123"
   version="1.1"
   id="svg8"
   inkscape:version="0.92.4 (5da689c313, 2019-01-14)"
   sodipodi:docname="sun-moon.svg">
  <defs
     id="defs2" />
  <sodipodi:namedview
     id="base"
     pagecolor="#ffffff"
     bordercolor="#666666"
     borderopacity="1.0"
     inkscape:pageopacity="0.0"
     inkscape:pageshadow="2"
     inkscape:zoom="0.7"
     inkscape:cx="229.82472"
     inkscape:cy="393.50989"
     inkscape:document-units="mm"
     inkscape:current-layer="layer1"
     showgrid="false"
     inkscape:window-width="1920"
     inkscape:window-height="1001"
     inkscape:window-x="-9"
     inkscape:window-y="-9"
     inkscape:window-maximized="1" />
  <metadata
     id="metadata5">
    <rdf:RDF>
      <cc:Work
         rdf:about="">
        <dc:format>image/svg+xml</dc:format>
        <dc:type
           rdf:resource="http://purl.org/dc/dcmitype/StillImage" />
        <dc:title></dc:title>
      </cc:Work>
    </rdf:RDF>
  </metadata>
  <g
     inkscape:label="Layer 1"
     inkscape:groupmode="layer"
     id="layer1"
     transform="translate(0,-174)">
    <g
       id="g51"
       transform="matrix(0.05361366,0,0,0.05361366,10.079358,177.54009)">
      <path
         id="path10"
         d="m 364.91761,235 c 0,66.48828 -53.90234,120.39062 -120.39062,120.39062 -66.48828,0 -120.39062,-53.90234 -120.39062,-120.39062 0,-66.48828 53.90234,-120.39062 120.39062,-120.39062 66.48828,0 120.39062,53.90234 120.39062,120.39062 z m 0,0"
         inkscape:connector-curvature="0"
         style="fill:#fedb41" />
      <g
         id="g30"
         style="fill:#083863">
        <path
           id="path12"
           d="m 235,104.60938 c -72.01172,0 -130.39062,58.3789 -130.39062,130.39062 0,72.01172 58.3789,130.39062 130.39062,130.39062 72.01172,0 130.39062,-58.3789 130.39062,-130.39062 C 365.30859,163.01953 306.98047,104.69141 235,104.60938 Z m 0,240.78124 c -60.96484,0 -110.39062,-49.42578 -110.39062,-110.39062 0,-60.96484 49.42578,-110.39062 110.39062,-110.39062 60.96484,0 110.39062,49.42578 110.39062,110.39062 C 345.32031,295.9375 295.9375,345.32031 235,345.39062 Z m 0,0"
           inkscape:connector-curvature="0" />
        <path
           id="path14"
           d="M 245,61 V 10 C 245,4.476562 240.52344,0 235,0 229.47656,0 225,4.476562 225,10 v 51 c 0,5.523438 4.47656,10 10,10 5.52344,0 10,-4.476562 10,-10 z m 0,0"
           inkscape:connector-curvature="0" />
        <path
           id="path16"
           d="m 235,399 c -5.52344,0 -10,4.47656 -10,10 v 51 c 0,5.52344 4.47656,10 10,10 5.52344,0 10,-4.47656 10,-10 v -51 c 0,-5.52344 -4.47656,-10 -10,-10 z m 0,0"
           inkscape:connector-curvature="0" />
        <path
           id="path18"
           d="m 460,225 h -51 c -5.52344,0 -10,4.47656 -10,10 0,5.52344 4.47656,10 10,10 h 51 c 5.52344,0 10,-4.47656 10,-10 0,-5.52344 -4.47656,-10 -10,-10 z m 0,0"
           inkscape:connector-curvature="0" />
        <path
           id="path20"
           d="m 71,235 c 0,-5.52344 -4.476562,-10 -10,-10 H 10 c -5.523438,0 -10,4.47656 -10,10 0,5.52344 4.476562,10 10,10 h 51 c 5.523438,0 10,-4.47656 10,-10 z m 0,0"
           inkscape:connector-curvature="0" />
        <path
           id="path22"
           d="m 365.26172,118.88281 35.46875,-35.472654 c 3.875,-3.910156 3.86328,-10.21875 -0.0312,-14.109375 -3.89063,-3.894531 -10.19922,-3.90625 -14.10938,-0.03125 l -35.47265,35.468749 c -2.54297,2.52344 -3.54297,6.21485 -2.6211,9.67578 0.92188,3.46485 3.625,6.16797 7.08985,7.08985 3.46094,0.92187 7.15234,-0.0781 9.67578,-2.6211 z m 0,0"
           inkscape:connector-curvature="0" />
        <path
           id="path24"
           d="m 104.73828,351.11719 -35.468749,35.47265 c -2.546875,2.52344 -3.546875,6.21094 -2.625,9.67578 0.921875,3.46094 3.628907,6.16797 7.089844,7.08985 3.464844,0.92187 7.152344,-0.0781 9.675781,-2.625 l 35.472654,-35.46875 c 3.875,-3.91016 3.85938,-10.21875 -0.0312,-14.11328 -3.89453,-3.89063 -10.20312,-3.90625 -14.11328,-0.0312 z m 0,0"
           inkscape:connector-curvature="0" />
        <path
           id="path26"
           d="m 365.26172,351.11719 c -3.91016,-3.875 -10.21875,-3.85938 -14.11328,0.0312 -3.89063,3.89453 -3.90625,10.20312 -0.0312,14.11328 l 35.47265,35.46875 c 3.91016,3.875 10.21875,3.86328 14.10938,-0.0312 3.89453,-3.89063 3.90625,-10.19922 0.0312,-14.10938 z m 0,0"
           inkscape:connector-curvature="0" />
        <path
           id="path28"
           d="m 104.73828,118.88281 c 3.91016,3.875 10.21875,3.85938 14.11328,-0.0312 3.89063,-3.89453 3.90625,-10.20312 0.0312,-14.11328 L 83.410156,69.269531 C 79.5,65.394531 73.191406,65.40625 69.300781,69.300781 65.40625,73.191406 65.394531,79.5 69.269531,83.410156 Z m 0,0"
           inkscape:connector-curvature="0" />
      </g>
    </g>
    <g
       id="g77"
       transform="matrix(0.02698849,0,0,0.02698849,15.769515,276.72532)">
	<circle
   id="circle53"
   r="256"
   cy="256"
   cx="256"
   style="fill:#c4c8d1" />

	<path
   id="path55"
   d="M 258.93,511.963 C 398.963,510.39 512,396.405 512,256 c 0,-2.257 -0.035,-4.506 -0.089,-6.749 C 508.358,111.959 396.711,1.584 258.928,0.037 369.973,28.892 452.182,132.531 452.182,256 c 0,123.468 -82.208,227.107 -193.252,255.963 z"
   style="fill:#b4b7bf"
   inkscape:connector-curvature="0" />

	<path
   id="path57"
   d="m 369.282,26.385 c -17.424,9.549 -29.241,28.056 -29.241,49.327 0,31.046 25.168,56.214 56.214,56.214 26.185,0 48.188,-17.903 54.436,-42.137 -22.448,-26.271 -50.12,-47.938 -81.409,-63.404 z"
   style="fill:#787780"
   inkscape:connector-curvature="0" />

	<path
   id="path59"
   d="m 419.502,126.883 c 15.284,-6.953 26.916,-20.531 31.187,-37.083 -0.222,-0.26 -0.446,-0.518 -0.669,-0.777 -1.024,-1.189 -2.057,-2.37 -3.103,-3.539 -0.391,-0.437 -0.784,-0.871 -1.178,-1.305 -1.016,-1.121 -2.042,-2.234 -3.077,-3.337 -0.424,-0.451 -0.849,-0.901 -1.276,-1.349 -1.027,-1.078 -2.064,-2.146 -3.109,-3.207 -0.441,-0.447 -0.881,-0.894 -1.325,-1.338 -1.055,-1.054 -2.122,-2.097 -3.195,-3.134 -0.444,-0.428 -0.885,-0.859 -1.332,-1.284 -1.106,-1.053 -2.226,-2.092 -3.351,-3.125 -0.423,-0.388 -0.842,-0.78 -1.267,-1.165 -1.198,-1.085 -2.411,-2.155 -3.63,-3.218 -0.363,-0.316 -0.721,-0.638 -1.085,-0.952 -1.393,-1.202 -2.803,-2.385 -4.222,-3.557 -0.196,-0.162 -0.388,-0.328 -0.585,-0.489 -3.313,-2.719 -6.695,-5.357 -10.144,-7.909 -0.014,-0.01 -0.028,-0.02 -0.042,-0.03 -1.665,-1.232 -3.347,-2.443 -5.043,-3.635 -0.383,-0.269 -0.772,-0.53 -1.157,-0.797 -1.333,-0.926 -2.67,-1.845 -4.021,-2.746 -0.53,-0.354 -1.067,-0.698 -1.6,-1.048 -1.217,-0.799 -2.438,-1.593 -3.669,-2.372 -0.612,-0.387 -1.229,-0.765 -1.844,-1.147 -1.168,-0.725 -2.34,-1.444 -3.52,-2.151 -0.663,-0.396 -1.33,-0.786 -1.996,-1.177 -1.146,-0.672 -2.296,-1.337 -3.453,-1.991 -0.702,-0.397 -1.406,-0.789 -2.112,-1.179 -1.137,-0.628 -2.278,-1.249 -3.425,-1.86 -0.73,-0.389 -1.462,-0.776 -2.196,-1.158 -1.138,-0.592 -2.282,-1.174 -3.43,-1.75 -0.454,-0.228 -0.909,-0.453 -1.364,-0.679 -7.983,4.378 -14.778,10.644 -19.806,18.188 28.543,22.036 52.474,50.074 70.039,82.3 z"
   style="fill:#67666e"
   inkscape:connector-curvature="0" />

	<circle
   id="circle61"
   r="29.698999"
   cy="320.21799"
   cx="434.86099"
   style="fill:#787780" />

	<path
   id="path63"
   d="m 434.861,290.519 c -2.526,0 -4.978,0.318 -7.319,0.911 21.678,12.634 21.724,44.927 0.002,57.576 2.341,0.593 4.792,0.911 7.317,0.911 16.402,0 29.699,-13.297 29.699,-29.699 0,-16.402 -13.297,-29.699 -29.699,-29.699 z"
   style="fill:#67666e"
   inkscape:connector-curvature="0" />

	<circle
   id="circle65"
   r="40.782001"
   cy="209.298"
   cx="296.78201"
   style="fill:#787780" />

	<path
   id="path67"
   d="m 296.782,168.516 c -2.36,0 -4.67,0.212 -6.921,0.597 14.446,7.591 24.304,22.732 24.304,40.185 0,17.453 -9.858,32.594 -24.304,40.185 2.251,0.385 4.56,0.597 6.921,0.597 22.523,0 40.782,-18.259 40.782,-40.782 0,-22.523 -18.259,-40.782 -40.782,-40.782 z"
   style="fill:#67666e"
   inkscape:connector-curvature="0" />

	<circle
   id="circle69"
   r="36.564999"
   cy="95.361"
   cx="159.616"
   style="fill:#787780" />

	<path
   id="path71"
   d="m 159.616,58.796 c -3.555,0 -6.987,0.517 -10.237,1.463 12.175,6.964 20.382,20.071 20.382,35.102 0,15.031 -8.208,28.138 -20.382,35.102 3.249,0.946 6.682,1.463 10.236,1.463 20.194,0 36.565,-16.371 36.565,-36.565 0.002,-20.194 -16.369,-36.565 -36.564,-36.565 z"
   style="fill:#67666e"
   inkscape:connector-curvature="0" />

	<circle
   id="circle73"
   r="72.169998"
   cy="344.63199"
   cx="172.433"
   style="fill:#787780" />

	<path
   id="path75"
   d="m 172.433,272.462 c -4.922,0 -9.727,0.497 -14.372,1.436 26.953,12.16 45.724,39.244 45.724,70.734 0,31.49 -18.771,58.574 -45.724,70.734 4.645,0.939 9.451,1.436 14.372,1.436 39.858,0 72.17,-32.312 72.17,-72.17 0,-39.858 -32.312,-72.17 -72.17,-72.17 z"
   style="fill:#67666e"
   inkscape:connector-curvature="0" />

</g>
  </g>
</svg>
